<svg version="1.2" xmlns="http://www.w3.org/2000/svg" viewBox="0 0 900 900" width="100" height="100">
	<title>ishtri</title>
	<style>
		.s0 { fill: #000000 } 
	</style>
	<g>
		<path class="s0" d="m793.1 250.9c-23.4 13.3-31.1 25.1-31.1 47.8 0 63.1 88.5 82.3 117.2 25.6 9.1-18.7 9.1-31.5 0-49.8-12.4-24.6-61.2-37.9-86.1-23.6z"/>
		<path class="s0" d="m292.1 300.6c-1.4 1-2.5 18.9-2.5 39.4 0 36.1-0.4 37.2-8.8 41.1-6.7 3.3-13.3 2.9-26.7 0-27.1-6.4-79.4-5.3-99.8 2.2-21.4 7.5-39.4 20.1-42.2 29.4-1.4 3.9-4.5 7.1-7.4 7.1-3.8 0-4.9-8.9-4.9-49.4 0-33.7-1.4-50.9-4.2-53.7-6.7-6.8-64.3-5.7-71 1.4-4.9 4.7-5.6 22.6-5.6 139.3 0 116.8 0.7 134.7 5.6 139.3 4.2 4.3 13 5.8 38 5.8 29.1 0 33.4-0.7 37.6-7.2l4.9-7.2 24.6 7.2c37.6 11.1 89.3 10 119.1-2.1l22.9-9.4 12.3 9.7c11.6 9 13.7 9.3 45 7.9 37.9-2.2 59-5.4 65.3-10.4 3.2-2.9 4.2-22.2 4.2-74.8v-71.3l9.2-2.2c11.6-3.2 24.9 4.3 32.3 18.3 4.6 8.2 6.3 25.1 7.7 75.2l1.8 64.5 28.1 1.1c48.2 1.7 43.9 8.9 43.9-78.1 0-50.9 1.4-75.6 3.9-77.4 7.4-4.3 10.2 7.2 10.2 41.9 0 64.8 11.2 92.1 44.3 106.7 13.7 6.5 23.5 7.2 84 7.2 56.6 0 69.2-1.1 73.8-5.4 4.2-4.6 5.2-16.1 5.2-63 0-46.9 1.1-59.1 6-67.3 7-12.2 27.8-22.6 41.8-20.8l10.2 1.1 1.1 73c0.3 46.6 2.1 74.9 4.6 78.1 5.2 6.1 63.2 6.5 69.2 0.4 3.1-3.3 4.2-32.3 4.2-109.3v-104.9l-9.5-3.9c-5.6-2.2-28.1-3.3-52-2.5-35.1 1-44.6 2.5-57.6 9.3-19.7 10-22.5 10-26.7-0.4-3.2-7.1-6.4-7.9-31.3-8.9-21.5-0.8-28.8 0.3-33.8 4.6-4.5 4.3-11.9 5.4-30.2 4.7l-24.2-1.1-1.1-25.1c-0.7-14.3-2.8-26.1-5.3-27.5-7.3-4.7-64.3-3.3-68.5 1.7-2.1 2.6-4.2 15.1-4.9 27.6l-1.1 23.3-12.3 1.1c-6.6 0.7-15.1 3.9-18.6 7.1-5.3 4.7-7.4 5.1-12.3 1.5-3.1-2.5-13-7.9-21.8-12.2-13.7-6.5-19.7-7.2-52-5.4-40.4 2.5-51.3 0-54.5-12.2-3.1-11.8-5.9-6.8-9.4 16.9-1.8 11.8-4.3 24.7-5.7 29-2.1 7.5-1 8.2 12.3 8.2 16.6 0 17.6 2.9 9.2 29.4-2.8 9.7-7.8 24.7-10.6 34-2.8 9.7-5.2 20.1-5.2 23.3 0 3.6-2.2 11.4-5 17.9-2.8 6.4-5.9 16.1-7.3 21.5-1.1 5.7-3.6 10-6 10-3.9 0-2.1-48 2.8-74.8 2.5-11.9 2.1-12.2-7.4-9.7-31.3 7.9-29.9 8.6-29.9-10.8 0.4-9.6 2.5-27.2 5.3-39 2.8-11.8 5.3-28.6 5.3-37.6 0-24.3 6-32.9 27.7-40.1 10.2-3.6 20.8-8.2 23.6-10.4 6-5 6.3-25.4 0.7-31.1-4.6-4.7-66.4-6.1-70.6-1.8zm-51.3 135.7c8.4 3.2 19.6 5.7 25.3 5.7 9.1-0.3 9.4 0.4 9.4 19.7 0 17.6-0.7 19.4-5.9 17.2-18-7.1-40.4-12.9-62.2-15.7-16.2-2.2-26.4-5.8-31.3-10.4-6.7-7.2-6.7-7.2 0.7-14.7 9.1-9.3 41.1-10.4 64-1.8zm424.1 56.2c0.7 34.8 0 45.9-3.5 46.9-20.4 6.8-31.3 5.8-39.7-2.8-8.1-8.3-8.8-11.5-8.8-44.8 0-19.7 1.1-38.3 2.1-41.5 1.8-4.7 6.7-5.4 25.7-4.7l23.2 1.1zm-546.5 0c13.4 12.9 43.9 24 66.8 24 16.1 0 41.1 10 41.1 16.1q0 16.1-32.7 16.1c-20 0-58.3-9.3-64.3-15.4-5.6-5.7-12.7-1.8-17.6 10-2.8 7.2-6.7 11.9-8.4 10.8-4.2-2.9-4.6-73.4-0.4-73.4 1.4 0 8.5 5.3 15.5 11.8z"/>
	</g>
</svg>