<?xml version="1.0" standalone="no"?>
<!DOCTYPE svg PUBLIC "-//W3C//DTD SVG 20010904//EN"
 "http://www.w3.org/TR/2001/REC-SVG-20010904/DTD/svg10.dtd">
<svg version="1.0" xmlns="http://www.w3.org/2000/svg"
 width="900.000000pt" height="900.000000pt" viewBox="0 0 900.000000 900.000000"
 preserveAspectRatio="xMidYMid slice">
<metadata>
Created by potrace 1.10, written by Peter Selinger 2001-2011
</metadata>
<g transform="translate(0.000000,900.000000) scale(0.100000,-0.100000)"
fill="#000000" stroke="none">
<path d="M5545 4978 c-49 -27 -65 -51 -65 -97 0 -128 185 -167 245 -52 19 38
19 64 0 101 -26 50 -128 77 -180 48z"/>
<path d="M4047 4913 c-4 -3 -7 -53 -7 -110 0 -101 -1 -104 -25 -115 -19 -9
-38 -8 -76 0 -77 18 -226 15 -284 -6 -61 -21 -112 -56 -120 -82 -4 -11 -13
-20 -21 -20 -11 0 -14 25 -14 138 0 94 -4 142 -12 150 -19 19 -183 16 -202 -4
-14 -13 -16 -63 -16 -389 0 -326 2 -376 16 -389 12 -12 37 -16 108 -16 83 0
95 2 107 20 l14 20 70 -20 c107 -31 254 -28 339 6 l65 26 35 -27 c33 -25 39
-26 128 -22 108 6 168 15 186 29 9 8 12 62 12 209 l0 199 26 6 c33 9 71 -12
92 -51 13 -23 18 -70 22 -210 l5 -180 80 -3 c137 -5 125 -25 125 218 0 142 4
211 11 216 21 12 29 -20 29 -117 0 -181 32 -257 126 -298 39 -18 67 -20 239
-20 161 0 197 3 210 15 12 13 15 45 15 176 0 131 3 165 17 188 20 34 79 63
119 58 l29 -3 3 -204 c1 -130 6 -209 13 -218 15 -17 180 -18 197 -1 9 9 12 90
12 305 l0 293 -27 11 c-16 6 -80 9 -148 7 -100 -3 -127 -7 -164 -26 -56 -28
-64 -28 -76 1 -9 20 -18 22 -89 25 -61 2 -82 -1 -96 -13 -13 -12 -34 -15 -86
-13 l-69 3 -3 70 c-2 40 -8 73 -15 77 -21 13 -183 9 -195 -5 -6 -7 -12 -42
-14 -77 l-3 -65 -35 -3 c-19 -2 -43 -11 -53 -20 -15 -13 -21 -14 -35 -4 -9 7
-37 22 -62 34 -39 18 -56 20 -148 15 -115 -7 -146 0 -155 34 -9 33 -17 19 -27
-47 -5 -33 -12 -69 -16 -81 -6 -21 -3 -23 35 -23 47 0 50 -8 26 -82 -8 -27
-22 -69 -30 -95 -8 -27 -15 -56 -15 -65 0 -10 -6 -32 -14 -50 -8 -18 -17 -45
-21 -60 -3 -16 -10 -28 -17 -28 -11 0 -6 134 8 209 7 33 6 34 -21 27 -89 -22
-85 -24 -85 30 1 27 7 76 15 109 8 33 15 80 15 105 0 68 17 92 79 112 29 10
59 23 67 29 17 14 18 71 2 87 -13 13 -189 17 -201 5z m-146 -379 c24 -9 56
-16 72 -16 26 1 27 -1 27 -55 0 -49 -2 -54 -17 -48 -51 20 -115 36 -177 44
-46 6 -75 16 -89 29 -19 20 -19 20 2 41 26 26 117 29 182 5z m1207 -157 c2
-97 0 -128 -10 -131 -58 -19 -89 -16 -113 8 -23 23 -25 32 -25 125 0 55 3 107
6 116 5 13 19 15 73 13 l66 -3 3 -128z m-1555 0 c38 -36 125 -67 190 -67 46 0
117 -28 117 -45 0 -30 -31 -45 -93 -45 -57 0 -166 26 -183 43 -16 16 -36 5
-50 -28 -8 -20 -19 -33 -24 -30 -12 8 -13 205 -1 205 4 0 24 -15 44 -33z"/>
</g>
</svg>
